<svg width="27" height="27" viewBox="0 0 27 27" fill="none" xmlns="http://www.w3.org/2000/svg">
<path opacity="0.2" d="M3.29167 26.625H23.7083C24.4819 26.625 25.2237 26.3177 25.7707 25.7707C26.3177 25.2237 26.625 24.4819 26.625 23.7083V3.29167C26.625 2.51812 26.3177 1.77625 25.7707 1.22927C25.2237 0.682291 24.4819 0.375 23.7083 0.375H3.29167C2.51812 0.375 1.77625 0.682291 1.22927 1.22927C0.682291 1.77625 0.375 2.51812 0.375 3.29167V23.7083C0.375 24.4819 0.682291 25.2237 1.22927 25.7707C1.77625 26.3177 2.51812 26.625 3.29167 26.625ZM7.66667 16.4167L11.1127 19.8627L16.4167 12.0417L23.7083 22.25H3.29167L7.66667 16.4167Z" fill="#E0E6EA"/>
</svg>
